# xmcd
#
# Track frame offsets:
# 150
# 15377
# 28408
# 42689
# 57501
# 72346
# 86621
# 101705
# 116744
# 132400
# 147012
# 161714
# 177294
# 191810
#
# Disc length: 2771 seconds
#
#
# Revision: 0
# Processed by: cddbd v1.5.1PL2 Copyright (c) Steve Scherf et al.
# Submitted via: FreeRIP 2.945 
#
DISCID=d20ad10e
DTITLE=Edson and Hudson - Duas Vidas Dois Amores - Duas Vidas Dois Amores
DYEAR=2006
DGENRE=Sertaneja
TTITLE0=Eu Não Sei Dizer Que Eu Não Te Amo
TTITLE1=Hoje Eu Posso Chorar
TTITLE2=Assovia
TTITLE3=Duas, Vidas, Dois Amores
TTITLE4=Nei Você Ni
TTITLE5=Ela Encasquetou
TTITLE6=Para Sempre
TTITLE7=Eu Nunca Amei Uma Mulher Assim
TTITLE8=Que Amor è Esse
TTITLE9=Nem Ilusão
TTITLE10=Foi Deus
TTITLE11=A Gente Vai
TTITLE12=Perdoa-me
TTITLE13=Esqueça Que Eu Te Amo
EXTD=
EXTT0=
EXTT1=
EXTT2=
EXTT3=
EXTT4=
EXTT5=
EXTT6=
EXTT7=
EXTT8=
EXTT9=
EXTT10=
EXTT11=
EXTT12=
EXTT13=
PLAYORDER=
